<?xml version="1.0" standalone="no"?><!DOCTYPE svg PUBLIC "-//W3C//DTD SVG 1.1//EN" "http://www.w3.org/Graphics/SVG/1.1/DTD/svg11.dtd"><svg t="1638427654612" class="icon" viewBox="0 0 1024 1024" version="1.1" xmlns="http://www.w3.org/2000/svg" p-id="8537" xmlns:xlink="http://www.w3.org/1999/xlink" width="200" height="200"><defs><style type="text/css"></style></defs><path d="M691.6096 796.90752v-278.85056c-64.53248-59.33056-126.02368-115.9168-126.90944-116.80256-15.81056-14.6176-30.848-26.68032-50.71872-26.68032-19.97824 0-39.68512 13.73184-53.83168 26.68032-2.2784 2.22208-220.4928 200.21248-267.008 242.27328v180.0704a29.3888 29.3888 0 0 0 8.58624 20.80256 29.11232 29.11232 0 0 0 20.70528 8.62208h165.24288a14.592 14.592 0 0 0 10.33728-4.34176 14.46912 14.46912 0 0 0 4.33664-10.34752l0.0512-128.8192c0-3.78368 1.38752-7.52128 4.28032-10.39872a14.53568 14.53568 0 0 1 10.28096-4.28032h185.86624c3.72224 0 7.43936 1.43872 10.28096 4.28032 2.9184 2.88256 4.28032 6.61504 4.28032 10.39872v128.768c0 3.73248 1.47456 7.5008 4.34176 10.38848a14.70464 14.70464 0 0 0 10.31168 4.34176h81.89952a81.36192 81.36192 0 0 1-22.33344-56.10496z" fill="#1296db" p-id="8538"></path><path d="M241.60256 512.96768c19.28704-17.95584 40.23808-37.29408 62.88896-58.08128 22.70208-20.736 44.26752-40.63232 64.64-59.69408 20.39296-19.06688 38.37952-35.7376 53.9904-50.08384a3476.36736 3476.36736 0 0 1 31.90784-29.00992c17.00864-15.11424 34.29376-22.95296 51.82464-23.56736 17.59744-0.55296 35.4304 7.34208 53.55008 23.56736 3.97312 3.38944 13.33248 12.0576 28.12416 26.12736 14.73024 14.0032 32.29696 30.5152 52.68992 49.63328 14.45888 13.45536 29.54752 27.5968 45.26592 42.368V375.14752a141.9264 141.9264 0 0 1-57.7536-136.86784 19285.00224 19285.00224 0 0 1-35.98336-34.5088c-10.77248-10.33728-17.83296-16.896-21.22752-19.78368-17.60256-16.78848-38.85056-25.06752-63.78496-24.79104-24.92928 0.3328-48.21504 10.78272-69.72416 31.56992-2.83136 2.83648-12.86656 12.17536-30.1824 28.17536-17.34144 16.01024-37.9904 35.24096-62.08512 57.64096-24.064 22.45632-50.13504 46.57664-78.20288 72.36608-28.06784 25.73312-54.30272 49.90976-78.64832 72.30976-24.3712 22.4512-45.32736 41.79456-62.91456 58.02496-17.5616 16.28672-28.06784 26.12736-31.4624 29.45536-9.1136 8.45312-13.89568 19.79392-14.47936 34.0736-0.52736 14.34112 4.83328 26.56768 16.14336 36.62336 10.22976 8.94976 22.4 13.17376 36.57216 12.62592 14.17216-0.55808 25.51296-4.22912 33.98656-10.9568 2.80576-2.2272 11.20256-9.6768 25.09312-22.29248 13.94688-12.60032 30.48448-27.89376 49.77152-45.84448zM933.68832 549.98528c-0.60928-13.45536-6.77888-25.84576-18.66752-37.01248l-21.28896-21.01248c-10.7264-10.67008-24.05888-23.45984-39.9616-38.2976-1.67936-1.5616-3.38432-3.15904-5.09952-4.77184v136.4224l0.04096 0.02048c8.47872 7.29088 19.8144 11.22816 33.99168 11.8016 14.1824 0.5376 26.6496-3.94752 37.38624-13.52192 9.63072-8.95488 14.16192-20.1728 13.59872-33.62816z" fill="#1296db" p-id="8539"></path><path d="M835.93216 170.43456v92.2368l-62.65856 41.03168-63.50336-41.03168V170.43456c-31.96416 20.87936-53.1968 57.0624-53.1968 98.30912a117.27872 117.27872 0 0 0 59.38176 102.12864v424.74496c0 31.6672 25.48224 57.32352 56.88832 57.32352 31.44192 0 56.89856-25.67168 56.89856-57.32352V370.87232a117.28384 117.28384 0 0 0 59.392-102.12864c-0.01536-41.24672-21.24288-77.43488-53.20192-98.30912z m-34.176 635.56096l-28.91264 16.80384-28.90752-16.80384v-33.63328l28.90752-16.8192 28.91264 16.8192v33.63328z" fill="#1296db" p-id="8540"></path></svg>